<svg xmlns="http://www.w3.org/2000/svg" width="166.76" height="73.02" viewBox="0 0 166.76 73.02"><defs><style>.cls-1{fill:#508991;}.cls-2{fill:#8eb8e5;}</style></defs><title>aper-logo</title><g id="Layer_2" data-name="Layer 2"><g id="Layer_1-2" data-name="Layer 1"><path class="cls-1" d="M.11,10.63,9.37,66.88c.48,2.23,2.09,3.73,3.89,3.39,0,0,17.44-3.33,19.71-3.72a8.45,8.45,0,0,1,6,1.5l6.31,4.5c1.57,1,2.84.31,2.84-2l.35-67C48.48,1.35,47-.16,45.3,0L2.56,6.13C.77,6.47-.37,8.41.11,10.63ZM5.26,11l22.79,3.55c.62.08,5.57.23,5.54,1.14l2.26,39.9c0,2.43-7.11,4.26-9,4.91l-13.24,5c-.7.37-1.36-.16-1.45-1.06L4.06,12.35C4,11.45,4.4,11,5.26,11Z"/><path class="cls-2" d="M86.11,13.49a19.74,19.74,0,0,1,7.71,7.67,22.66,22.66,0,0,1,2.79,11.38A22.89,22.89,0,0,1,93.82,44a19.71,19.71,0,0,1-7.71,7.71A22.49,22.49,0,0,1,75,54.42a19.76,19.76,0,0,1-8.44-1.78A17.47,17.47,0,0,1,60,47.48V69.6H52.29V11.15h7.42v6.78a16.4,16.4,0,0,1,6.54-5.37A20.66,20.66,0,0,1,75,10.74,22.49,22.49,0,0,1,86.11,13.49Zm-4.4,32.25a13.67,13.67,0,0,0,5.17-5.33,16.05,16.05,0,0,0,1.9-7.87,16.05,16.05,0,0,0-1.9-7.87,13.43,13.43,0,0,0-5.17-5.29,14.67,14.67,0,0,0-7.39-1.86,14.32,14.32,0,0,0-7.3,1.9,13.83,13.83,0,0,0-5.17,5.29A15.81,15.81,0,0,0,60,32.54a16.26,16.26,0,0,0,1.86,7.87A13.27,13.27,0,0,0,67,45.74a15.22,15.22,0,0,0,14.73,0Z"/><path class="cls-2" d="M134,42.47l4.2,5A18.08,18.08,0,0,1,131,52.64a27.18,27.18,0,0,1-21.67-1,19.8,19.8,0,0,1-8.12-7.79,22.31,22.31,0,0,1-2.86-11.3,22.77,22.77,0,0,1,2.78-11.22,20,20,0,0,1,7.67-7.79,21.83,21.83,0,0,1,11-2.79,21.56,21.56,0,0,1,10.58,2.63A19.91,19.91,0,0,1,138,20.75a21.7,21.7,0,0,1,2.9,11l-34,6.62a13.29,13.29,0,0,0,5.45,6.87,17,17,0,0,0,9.25,2.42A15.89,15.89,0,0,0,134,42.47ZM112.64,19.14a12.8,12.8,0,0,0-5,5.21,16.43,16.43,0,0,0-1.77,7.79v.8l27.36-5.16a13.11,13.11,0,0,0-4.68-7.59,13.51,13.51,0,0,0-8.72-2.91A14,14,0,0,0,112.64,19.14Z"/><path class="cls-2" d="M157.15,12.68a21.72,21.72,0,0,1,9.61-1.94v7.51a16,16,0,0,0-1.78-.08q-6.3,0-9.89,3.75t-3.59,10.7V53.93h-7.75V11.15h7.43v7.18A13.19,13.19,0,0,1,157.15,12.68Z"/></g></g></svg>