<?xml version="1.0" encoding="utf-8"?>
<!-- Generator: Adobe Illustrator 22.1.0, SVG Export Plug-In . SVG Version: 6.00 Build 0)  -->
<svg version="1.1" id="Layer_1" xmlns="http://www.w3.org/2000/svg" xmlns:xlink="http://www.w3.org/1999/xlink" x="0px" y="0px"
	 viewBox="0 0 512 512" style="enable-background:new 0 0 512 512;" xml:space="preserve">
<style type="text/css">
	.st0{fill:#3C676D;}
	.st1{fill:#284548;}
	.st2{fill:#718CA4;}
	.st3{fill:#82A8D1;}
	.st4{fill:#FFF1A6;}
	.st5{fill:#E8D986;}
	.st6{fill:#285A48;}
</style>
<title>boton-control</title>
<g id="Layer_2_1_">
	<g id="Layer_1-2">
		<path class="st0" d="M361.7,261L251,150.3c-20.5-20.5-53.8-20.5-74.3,0L15.4,311.6c-20.5,20.5-20.5,53.8,0,74.3l110.7,110.7
			c20.5,20.5,53.8,20.5,74.3,0l161.3-161.3C382.2,314.8,382.2,281.5,361.7,261z"/>
		<path class="st1" d="M361.7,261l-20.6-20.6c20.5,20.5,20.5,53.8,0,74.3L179.8,476c-20.5,20.5-53.8,20.5-74.3,0l20.6,20.6
			c20.5,20.5,53.8,20.5,74.3,0l161.3-161.3C382.2,314.8,382.2,281.5,361.7,261z"/>
		<path class="st2" d="M381.9,157.9c0,15.3-12.4,27.7-27.7,27.7c-15.3,0-27.7-12.4-27.7-27.7c0-15.3,12.4-27.7,27.7-27.7
			c0,0,0,0,0,0C369.4,130.1,381.9,142.6,381.9,157.9z"/>
		<path class="st2" d="M484.5,167.1c-3-3-4.7-7-4.7-11.2c-0.7-68-55.7-123-123.7-123.7c-8.9-0.3-15.9-7.7-15.6-16.6
			C340.8,7,347.8,0.1,356.4,0C442,0.9,511.1,70,512,155.6c0.1,8.9-7,16.2-15.9,16.3C491.7,171.9,487.6,170.2,484.5,167.1
			L484.5,167.1z"/>
		<path class="st3" d="M420.8,177.7c-3-3-4.7-7-4.7-11.2c-0.4-38.8-31.8-70.2-70.6-70.6c-8.9-0.1-16-7.4-15.9-16.3
			c0.1-8.9,7.4-16,16.3-15.9c56.3,0.6,101.9,46.1,102.4,102.5c0.1,8.9-7,16.2-15.9,16.3C428,182.5,423.9,180.8,420.8,177.7z"/>
		<g id="boton-amarillo">
			<path class="st4" d="M244.4,289.8c18.6,33,6.9,74.9-26.2,93.5c-33,18.6-74.9,6.9-93.5-26.2s-6.9-74.9,26.2-93.5l0,0
				C183.9,245,225.8,256.7,244.4,289.8z"/>
			<path class="st5" d="M203,257.3c-5.1-1.4-10.3-2.2-15.6-2.5c45.4,14.5,61.2,60.7,42.9,93.9c-12.6,22.8-52.9,42.9-78.9,34.8
				c33.2,18.3,74.9,6.2,93.2-27s6.2-74.9-27-93.2C213,260.8,208.1,258.8,203,257.3L203,257.3z"/>
			<g>
				<g>
					<g>
						<path class="st1" d="M147.6,349.8c0.9-0.3,1.8-0.3,2.6-0.1c0.8,0.2,1.6,0.7,2.2,1.4c0.7,0.7,1.1,1.5,1.2,2.4
							c0.1,0.9,0,1.7-0.3,2.6c-0.4,0.9-1,1.7-1.9,2.5l-2,1.8l2.5,2.7l-2.3,2.1l-9-9.8l4.2-3.9C145.8,350.6,146.7,350.1,147.6,349.8z
							 M150.7,354.9c0.1-0.6-0.1-1.2-0.6-1.7c-0.5-0.6-1.1-0.8-1.7-0.8s-1.3,0.4-2,1l-1.9,1.7l3.1,3.4l1.9-1.7
							C150.3,356.2,150.7,355.5,150.7,354.9z"/>
						<path class="st6" d="M149.6,365.6l-9.5-10.4l4.5-4.1c0.9-0.8,1.8-1.4,2.8-1.7l0,0c1-0.3,1.9-0.4,2.8-0.1
							c0.9,0.2,1.7,0.8,2.4,1.5c0.7,0.8,1.1,1.6,1.3,2.5c0.2,0.9,0,1.9-0.4,2.8c-0.4,0.9-1.1,1.8-2,2.6l-1.7,1.6l2.5,2.7
							L149.6,365.6z M141.2,355.3l8.5,9.3l1.7-1.6l-2.5-2.7l2.3-2.1c0.8-0.8,1.4-1.6,1.8-2.4c0.3-0.8,0.5-1.6,0.3-2.4
							c-0.1-0.8-0.5-1.5-1.1-2.2c-0.6-0.7-1.3-1.1-2.1-1.3c-0.8-0.2-1.6-0.2-2.4,0.1l0,0c-0.8,0.3-1.7,0.8-2.5,1.6L141.2,355.3z
							 M147.7,359l-3.6-4l2.1-1.9c0.7-0.7,1.5-1,2.2-1.1c0.7,0,1.4,0.3,2,0.9c0.6,0.6,0.8,1.3,0.7,2l0,0c-0.1,0.7-0.5,1.4-1.3,2.1
							L147.7,359z M145.2,355.1l2.6,2.9l1.6-1.4c0.6-0.6,1-1.1,1-1.6v0c0.1-0.5-0.1-1-0.5-1.4c-0.4-0.5-0.9-0.7-1.4-0.7
							c-0.5,0-1.1,0.3-1.7,0.9L145.2,355.1z"/>
					</g>
					<g>
						<path class="st1" d="M159.7,337.9l9,9.8l-2.2,2l-1.1-1.2c0.2,1.5-0.4,2.9-1.7,4.1c-1.2,1.1-2.4,1.5-3.7,1.4
							c-1.3-0.1-2.6-0.9-3.8-2.2l-5.3-5.7l2.3-2.1l5.2,5.7c0.7,0.8,1.4,1.2,2.2,1.3c0.7,0.1,1.4-0.2,2.1-0.8c0.7-0.6,1-1.3,1.1-2.1
							c0-0.8-0.3-1.6-1.1-2.5l-5.1-5.5L159.7,337.9z"/>
						<path class="st6" d="M160.4,354.4c-0.2,0-0.3,0-0.5,0c-1.4-0.1-2.8-0.9-4.1-2.4l-5.5-6l2.8-2.6l5.4,6c0.6,0.7,1.3,1.1,1.9,1.1
							c0.6,0,1.2-0.2,1.8-0.7c0.6-0.6,0.9-1.2,0.9-1.9c0-0.7-0.3-1.4-1-2.2l-5.3-5.8l2.8-2.6l9.5,10.4l-2.8,2.5l-0.7-0.8
							c-0.1,1.2-0.7,2.4-1.9,3.4C162.8,353.9,161.6,354.4,160.4,354.4z M151.4,346l5,5.5c1.2,1.3,2.4,2,3.6,2.1
							c1.2,0.1,2.3-0.3,3.4-1.3c1.2-1.1,1.8-2.4,1.6-3.8l-0.1-1.1l1.6,1.8l1.6-1.5l-8.5-9.3L158,340l4.8,5.2
							c0.8,0.9,1.2,1.8,1.2,2.7c0,0.9-0.4,1.7-1.2,2.4c-0.7,0.7-1.5,0.9-2.3,0.9c-0.8-0.1-1.6-0.5-2.4-1.4l-4.9-5.4L151.4,346z"/>
					</g>
					<g>
						<path class="st1" d="M171.8,344.5c-0.9,0.5-1.7,0.7-2.5,0.8l-0.8-2.4c0.7-0.1,1.4-0.3,2.2-0.6c0.8-0.3,1.4-0.8,2-1.3
							c0.6-0.6,1-1.1,1.2-1.6c0.1-0.5,0.1-0.9-0.2-1.2c-0.2-0.2-0.5-0.3-0.8-0.3c-0.3,0-0.7,0.1-1,0.3c-0.4,0.2-0.9,0.4-1.4,0.8
							c-0.9,0.5-1.7,0.9-2.3,1.1c-0.6,0.3-1.3,0.3-2,0.3c-0.7-0.1-1.3-0.4-1.9-1.1c-0.5-0.6-0.8-1.2-1-2c-0.1-0.7,0-1.5,0.4-2.4
							s1-1.7,1.9-2.5c0.6-0.6,1.3-1.1,2-1.5c0.7-0.4,1.5-0.7,2.2-0.8l0.9,2.4c-1.4,0.3-2.5,0.9-3.4,1.7c-0.6,0.6-1,1.1-1.1,1.6
							c-0.1,0.5,0,0.9,0.3,1.2c0.3,0.3,0.7,0.4,1.2,0.3c0.5-0.2,1.2-0.5,2-1c0.9-0.5,1.7-0.9,2.3-1.1c0.6-0.3,1.3-0.4,2-0.3
							c0.7,0.1,1.3,0.4,1.9,1.1c0.5,0.6,0.8,1.2,0.9,2c0.1,0.7,0,1.5-0.4,2.4s-1,1.7-1.9,2.5C173.6,343.5,172.8,344.1,171.8,344.5z"
							/>
						<path class="st6" d="M169.1,345.7l-1-3.1l0.5,0c0.7-0.1,1.4-0.3,2.1-0.6c0.7-0.3,1.3-0.7,1.9-1.2c0.6-0.5,0.9-1,1.1-1.4
							c0.1-0.5,0-0.7-0.2-0.8c-0.1-0.2-0.3-0.2-0.5-0.2c-0.3,0-0.6,0.1-0.9,0.2c-0.4,0.2-0.8,0.4-1.4,0.7c-0.9,0.5-1.7,0.9-2.4,1.2
							c-0.7,0.3-1.4,0.4-2.2,0.3c-0.8-0.1-1.5-0.5-2.2-1.2c-0.6-0.6-0.9-1.4-1-2.2c-0.1-0.8,0-1.7,0.4-2.6c0.4-0.9,1.1-1.8,2-2.6
							c0.6-0.6,1.4-1.1,2.1-1.5c0.8-0.4,1.5-0.7,2.3-0.8l0.3-0.1l1.1,3.1l-0.4,0.1c-1.3,0.3-2.4,0.8-3.3,1.6c-0.6,0.5-0.9,1-1,1.4
							c-0.1,0.4,0,0.6,0.2,0.9c0.1,0.2,0.4,0.3,0.8,0.2c0.5-0.1,1.1-0.5,2-1c0.9-0.5,1.7-0.9,2.4-1.2c0.7-0.3,1.4-0.4,2.2-0.3
							c0.8,0.1,1.5,0.5,2.2,1.2c0.6,0.6,0.9,1.3,1,2.2c0.1,0.8,0,1.7-0.4,2.6c-0.4,0.9-1.1,1.8-2,2.6c-0.8,0.7-1.7,1.3-2.6,1.8h0
							c-1,0.5-1.8,0.7-2.6,0.8L169.1,345.7z M169,343.2l0.6,1.7c0.6-0.1,1.3-0.3,2.1-0.7l0,0c0.9-0.4,1.7-1,2.5-1.7
							c0.9-0.8,1.5-1.6,1.8-2.4c0.3-0.8,0.5-1.5,0.4-2.2c-0.1-0.7-0.4-1.3-0.8-1.8c-0.5-0.6-1.1-0.9-1.7-1c-0.6-0.1-1.2,0-1.8,0.3
							c-0.6,0.2-1.4,0.6-2.3,1.1c-0.9,0.5-1.6,0.8-2.1,1c-0.8,0.3-1.3-0.1-1.6-0.4c-0.4-0.4-0.5-1-0.4-1.6c0.1-0.6,0.5-1.1,1.2-1.8
							c0.9-0.8,1.9-1.4,3.2-1.7l-0.6-1.7c-0.6,0.1-1.1,0.4-1.7,0.7c-0.7,0.4-1.4,0.9-2,1.4c-0.9,0.8-1.5,1.6-1.8,2.4
							c-0.3,0.8-0.5,1.5-0.4,2.2c0.1,0.7,0.4,1.3,0.9,1.8c0.5,0.6,1.1,0.9,1.7,1c0.6,0.1,1.2,0,1.8-0.2c0.6-0.3,1.4-0.6,2.3-1.1
							c0.6-0.3,1.1-0.6,1.5-0.8c0.4-0.2,0.8-0.3,1.2-0.3c0.4,0,0.8,0.1,1.1,0.5c0.4,0.4,0.5,0.9,0.3,1.5c-0.2,0.5-0.6,1.1-1.3,1.8
							c-0.6,0.6-1.3,1-2.1,1.4C170.3,342.9,169.6,343.1,169,343.2z"/>
					</g>
					<g>
						<path class="st1" d="M180,319.3l9,9.8l-2.3,2.1l-3.7-4l-4.5,4.1l3.7,4l-2.3,2.1l-9-9.8l2.3-2.1l3.5,3.9l4.5-4.1l-3.5-3.9
							L180,319.3z"/>
						<path class="st6" d="M179.9,337.9l-9.5-10.4l2.8-2.6l3.5,3.9l3.9-3.6l-3.5-3.9l2.8-2.6l9.5,10.4l-2.8,2.6l-3.7-4l-3.9,3.6
							l3.7,4L179.9,337.9z M171.5,327.6l8.5,9.3l1.7-1.6l-3.7-4l5-4.6l3.7,4l1.7-1.6l-8.5-9.3l-1.7,1.6l3.5,3.9l-5,4.6l-3.5-3.9
							L171.5,327.6z"/>
					</g>
					<g>
						<path class="st1" d="M200.9,301.7c1.3,0.1,2.5,0.8,3.7,2.1l5.5,6l-2.3,2.1l-5.5-6c-0.6-0.7-1.3-1-2-1.1
							c-0.7,0-1.3,0.2-1.9,0.8c-0.6,0.6-1,1.2-1,2c0,0.7,0.3,1.5,1,2.2l5.3,5.8l-2.3,2.1l-5.5-6c-0.6-0.7-1.3-1.1-1.9-1.1
							s-1.3,0.2-1.9,0.7c-0.6,0.6-1,1.2-1,2c0,0.7,0.3,1.5,1,2.2l5.3,5.8l-2.3,2.1l-9-9.8l2.2-2l1.1,1.2c-0.1-0.7,0-1.4,0.3-2.1
							c0.3-0.7,0.7-1.3,1.4-1.9c0.7-0.6,1.4-1,2.1-1.2c0.7-0.2,1.4-0.2,2.1,0c-0.1-0.8,0-1.5,0.3-2.3c0.3-0.7,0.8-1.4,1.5-2.1
							C198.5,302.1,199.7,301.6,200.9,301.7z"/>
						<path class="st6" d="M195.2,323.9l-9.5-10.4l2.8-2.5l0.7,0.7c0-0.4,0.1-0.8,0.3-1.3c0.3-0.7,0.8-1.4,1.5-2.1
							c0.7-0.7,1.5-1.1,2.3-1.3c0.6-0.2,1.2-0.2,1.8-0.1c0-0.7,0.1-1.3,0.4-1.9c0.3-0.8,0.9-1.5,1.6-2.2c1.2-1.1,2.5-1.7,3.9-1.6
							l0,0c1.4,0.1,2.7,0.8,3.9,2.2l5.8,6.3l-2.8,2.6l-5.7-6.2c-0.6-0.6-1.1-0.9-1.7-0.9c-0.6,0-1.1,0.2-1.6,0.7
							c-0.6,0.5-0.9,1.1-0.9,1.7c0,0.6,0.3,1.3,0.9,1.9l5.6,6.1l-2.8,2.6l-5.7-6.2c-0.6-0.6-1.1-0.9-1.7-1c-0.6,0-1.1,0.2-1.6,0.6
							c-0.6,0.5-0.9,1.1-0.9,1.7c0,0.6,0.3,1.3,0.9,1.9l5.6,6.1L195.2,323.9z M186.8,313.6l8.5,9.3l1.7-1.6l-5.1-5.5
							c-0.8-0.8-1.1-1.7-1.1-2.5c0.1-0.8,0.4-1.6,1.1-2.2c0.7-0.6,1.4-0.9,2.1-0.8c0.8,0,1.5,0.5,2.2,1.2l5.2,5.7l1.7-1.6l-5.1-5.5
							c-0.8-0.8-1.1-1.7-1.1-2.5c0.1-0.8,0.4-1.6,1.2-2.2c0.7-0.6,1.4-0.9,2.2-0.9c0.8,0,1.5,0.4,2.2,1.2l5.2,5.7l1.7-1.6l-5.3-5.8
							c-1.1-1.2-2.2-1.8-3.4-1.9l0,0c-1.2-0.1-2.3,0.4-3.4,1.4c-0.6,0.6-1.1,1.2-1.4,1.9c-0.3,0.7-0.4,1.4-0.3,2.1l0.1,0.6l-0.6-0.2
							c-0.6-0.2-1.3-0.2-1.9,0c-0.7,0.2-1.3,0.6-2,1.2c-0.6,0.5-1,1.1-1.3,1.8c-0.2,0.6-0.3,1.3-0.2,1.9l0.2,1.2l-1.7-1.8
							L186.8,313.6z"/>
					</g>
					<g>
						<path class="st1" d="M219.6,299.5c-0.2,0.7-0.5,1.5-1.1,2.4c-0.5,0.8-1.2,1.6-2,2.3c-1,0.9-1.9,1.6-2.9,1.9
							c-0.9,0.4-1.8,0.5-2.5,0.4c-0.8-0.1-1.4-0.5-1.9-1c-0.5-0.5-0.8-1.1-0.8-1.8c-0.1-0.7,0-1.3,0.4-2c-0.6,0.1-1.1,0.1-1.7,0
							c-0.5-0.2-1-0.5-1.4-0.9c-0.5-0.5-0.8-1.2-0.8-1.9c-0.1-0.7,0.1-1.5,0.5-2.4c0.4-0.9,1.1-1.7,2.1-2.6c0.6-0.6,1.3-1.1,2-1.5
							c0.7-0.4,1.4-0.7,2.1-0.9l1,2.3c-1.2,0.4-2.3,1-3.3,1.9c-0.7,0.7-1.2,1.3-1.3,1.8c-0.2,0.6-0.1,1,0.3,1.4
							c0.3,0.3,0.7,0.5,1.1,0.5s0.9-0.3,1.4-0.8l2.7-2.4l1.6,1.8l-2.8,2.6c-0.6,0.5-0.9,1-1,1.5c-0.1,0.5,0,0.9,0.3,1.3
							c0.4,0.4,0.8,0.5,1.4,0.4s1.3-0.6,2.1-1.3c0.6-0.5,1.1-1.1,1.5-1.8c0.4-0.7,0.7-1.4,0.9-2L219.6,299.5z"/>
						<path class="st6" d="M211.7,307c-0.2,0-0.4,0-0.6,0c-0.8-0.1-1.6-0.5-2.1-1.2c-0.5-0.6-0.8-1.3-0.9-2c-0.1-0.5,0-1,0.1-1.6
							c-0.4,0-0.8,0-1.2-0.1c-0.6-0.2-1.1-0.5-1.6-1c-0.5-0.6-0.9-1.3-0.9-2.1c-0.1-0.8,0.1-1.7,0.6-2.6c0.4-0.9,1.2-1.8,2.2-2.7
							c0.7-0.6,1.4-1.1,2.1-1.6c0.7-0.4,1.5-0.8,2.1-1l0.3-0.1l1.2,3l-0.4,0.1c-1.2,0.4-2.2,1-3.1,1.8c-0.7,0.6-1.1,1.2-1.2,1.7
							c-0.1,0.4-0.1,0.8,0.2,1c0.2,0.3,0.5,0.4,0.8,0.3c0.3,0,0.7-0.3,1.2-0.7l3-2.7l2.1,2.3l-3.1,2.8c-0.5,0.5-0.8,0.9-0.9,1.3
							c-0.1,0.4,0,0.6,0.2,0.9c0.3,0.3,0.6,0.4,1.1,0.3c0.5-0.1,1.2-0.6,2-1.3c0.6-0.5,1-1.1,1.5-1.7c0.4-0.6,0.7-1.3,0.8-1.9
							l0.1-0.5l3,1.4l-0.1,0.3c-0.2,0.8-0.6,1.6-1.1,2.5c-0.6,0.8-1.2,1.6-2.1,2.4c-1,0.9-2,1.6-3,2C213,306.8,212.3,307,211.7,307z
							 M209.4,301.2l-0.4,0.7c-0.3,0.6-0.4,1.2-0.3,1.8c0.1,0.6,0.3,1.1,0.7,1.6c0.5,0.5,1,0.8,1.7,0.9c0.7,0.1,1.5,0,2.3-0.4
							c0.9-0.4,1.8-1,2.8-1.9c0.8-0.7,1.4-1.5,1.9-2.3c0.4-0.7,0.8-1.3,0.9-1.9l-1.6-0.7c-0.2,0.5-0.4,1.1-0.8,1.7
							c-0.5,0.7-1,1.3-1.6,1.9c-0.9,0.8-1.6,1.3-2.3,1.4c-0.9,0.2-1.5-0.1-1.8-0.5c-0.4-0.5-0.6-1-0.4-1.6c0.1-0.6,0.5-1.1,1.2-1.7
							l2.5-2.3l-1.1-1.2l-2.4,2.2c-0.6,0.5-1.1,0.8-1.6,0.9c-0.5,0.1-1-0.1-1.4-0.6c-0.4-0.5-0.5-1.1-0.3-1.8c0.2-0.6,0.7-1.3,1.5-2
							c0.9-0.8,1.9-1.4,3-1.8l-0.7-1.6c-0.5,0.2-1.1,0.5-1.6,0.8c-0.7,0.4-1.4,0.9-2,1.5c-0.9,0.8-1.6,1.7-2,2.5
							c-0.4,0.8-0.6,1.5-0.5,2.2c0.1,0.7,0.3,1.2,0.7,1.7c0.4,0.4,0.8,0.7,1.2,0.8c0.5,0.1,1,0.1,1.5,0L209.4,301.2z"/>
					</g>
					<g>
						<path class="st1" d="M212.3,289.7l2.6-2.4l5.4,6.8l-1.7,1.6L212.3,289.7z M221.4,299c-0.5,0-0.9-0.2-1.2-0.6
							c-0.3-0.4-0.5-0.8-0.4-1.2s0.2-0.9,0.6-1.2s0.8-0.5,1.3-0.5c0.5,0,0.9,0.2,1.2,0.5s0.5,0.8,0.4,1.3c0,0.5-0.2,0.9-0.6,1.3
							C222.3,298.8,221.9,299,221.4,299z"/>
						<path class="st6" d="M221.4,299.4C221.4,299.4,221.4,299.4,221.4,299.4c-0.6,0-1.1-0.2-1.5-0.7c-0.4-0.4-0.6-0.9-0.5-1.5
							c0-0.6,0.3-1.1,0.8-1.5c0.5-0.4,1-0.6,1.6-0.6c0.6,0,1.1,0.2,1.5,0.7c0.4,0.4,0.6,0.9,0.5,1.5c0,0.6-0.3,1.1-0.7,1.5
							C222.5,299.2,222,299.4,221.4,299.4z M221.6,295.8c-0.4,0-0.7,0.1-1,0.4c-0.3,0.3-0.5,0.6-0.5,1c0,0.4,0.1,0.7,0.3,1
							c0.3,0.3,0.6,0.4,0.9,0.4h0c0.4,0,0.7-0.1,1-0.4c0.3-0.3,0.5-0.6,0.5-1c0-0.4-0.1-0.7-0.3-1
							C222.3,295.9,222,295.8,221.6,295.8C221.6,295.8,221.6,295.8,221.6,295.8z M218.6,296.3l-6.8-6.5l3.2-2.9l5.9,7.4L218.6,296.3
							z M212.8,289.8l5.8,5.5l1.2-1.1l-5-6.2L212.8,289.8z"/>
					</g>
				</g>
			</g>
		</g>
	</g>
</g>
</svg>
